:FULLY-SPECIFIED
:FORCE-ALL-JOINTS-BE-3DOF
:DEGREES
985
root 1.11353 15.1526 32.4934 0 0 0
lfemur 8.734 1.75592 5.17932
ltibia 0 0 0
lfoot -30.1114 -11.6882 -2.63662e-05
ltoes 0 0 0
rfemur -32.8605 -15.632 -6.22922
rtibia 50.6828 -0 0
rfoot -22.7193 5.02118 -0.000307096
rtoes -42.2014 0 0
lowerback 0 0 0
upperback 0 0 0
thorax 0 0 0
lowerneck -6.76527 1.17265 5.8218
upperneck 1.16606 0.973709 3.36073
head 1.51842 0.593734 0.10243
lclavicle 0 0 0
lhumerus 0 0 0
lradius 0 0 0
lwrist 0 0 0
lhand 37.2498 24.4077 9.16319e-05
lfingers 0 0 0
lthumb 60.0789 38.1048 3.37818e-05
rclavicle 0 0 0
rhumerus 0 0 0
rradius 0 0 0
rwrist 0 0 0
rhand -31.4722 -44.5673 0.000550479
rfingers 0 0 0
rthumb 0 0 0
986
root 1.11759 15.1546 32.488 0 0 0
lfemur 8.72956 1.72433 5.17813
ltibia 0 0 0
lfoot -30.1138 -11.6703 -1.24048e-05
ltoes 0 0 0
rfemur -32.8177 -15.6075 -6.23743
rtibia 50.6518 -0 0
rfoot -22.7087 4.97349 -0.000144482
rtoes -42.2323 0 0
lowerback 0 0 0
upperback 0 0 0
thorax 0 0 0
lowerneck -6.77857 1.17032 5.82353
upperneck 1.19413 0.968172 3.35928
head 1.52976 0.592014 0.101679
lclavicle 0 0 0
lhumerus 0 0 0
lradius 0 0 0
lwrist 0 0 0
lhand 37.2401 24.3922 4.3111e-05
lfingers 0 0 0
lthumb 60.0706 38.0981 1.58937e-05
rclavicle 0 0 0
rhumerus 0 0 0
rradius 0 0 0
rwrist 0 0 0
rhand -31.4575 -44.5057 0.000258989
rfingers 0 0 0
rthumb 0 0 0
987
root 1.12105 15.1562 32.4829 0 0 0
lfemur 8.72677 1.70448 5.17738
ltibia 0 0 0
lfoot -30.1154 -11.6591 -3.247e-06
ltoes 0 0 0
rfemur -32.7907 -15.5921 -6.24258
rtibia 50.6323 -0 0
rfoot -22.702 4.94353 -3.78187e-05
rtoes -42.2518 0 0
lowerback 0 0 0
upperback 0 0 0
thorax 0 0 0
lowerneck -6.78693 1.16885 5.82461
upperneck 1.21176 0.964694 3.35838
head 1.53688 0.590933 0.101207
lclavicle 0 0 0
lhumerus 0 0 0
lradius 0 0 0
lwrist 0 0 0
lhand 37.234 24.3824 1.12845e-05
lfingers 0 0 0
lthumb 60.0654 38.0939 4.16023e-06
rclavicle 0 0 0
rhumerus 0 0 0
rradius 0 0 0
rwrist 0 0 0
rhand -31.4483 -44.467 6.77911e-05
rfingers 0 0 0
rthumb 0 0 0
988
root 1.1238 15.1573 32.4781 5.2697 -4.63928 4.088
lfemur 8.7258 1.6976 5.17712
ltibia 1.90833e-14 0 0
lfoot -30.1159 -11.6552 0
ltoes -33.9256 0 0
rfemur -32.7814 -15.5868 -6.24436
rtibia 50.6256 0 0
rfoot -22.6997 4.93313 0
rtoes -42.2585 0 0
lowerback -1.48754 -0.359459 0.669615
upperback -0.712469 -0.483304 -5.85243
thorax 0.0446671 -0.257355 -6.4557
lowerneck -6.78983 1.16834 5.82499
upperneck 1.21788 0.963487 3.35806
head 1.53935 0.590558 0.101043
lclavicle -1.22253e-14 0 0
lhumerus -58.2643 -45.1387 114.869
lradius 55.0398 0 0
lwrist 24.9687 0 0
lhand 37.2319 24.379 0
lfingers 7.12502 0 0
lthumb 60.0636 38.0924 0
rclavicle -1.22253e-14 0 0
rhumerus 3.74548 -24.7764 -0.17803
rradius 27.9644 0 0
rwrist -11.1351 0 0
rhand -31.4451 -44.4536 0
rfingers 7.12502 0 0
rthumb -4.71295 -74.381 0
989
root 1.12604 15.1581 32.4735 0 0 0
lfemur 0 0 0
ltibia 0 0 0
lfoot -30.1156 -11.6383 1.71599e-06
ltoes -33.9355 0 0
rfemur 0 0 0
rtibia 50.6112 -0 0
rfoot -22.6975 4.91439 -1.24743e-05
rtoes 0 0 0
lowerback -1.48246 -0.355374 0.663067
upperback -0.708688 -0.477646 -5.85212
thorax 0 0 0
lowerneck -6.80105 1.16379 5.83019
upperneck 0 0 0
head 0 0 0
lclavicle 0 0 0
lhumerus 0 0 0
lradius 0 0 0
lwrist 0 0 0
lhand 0 0 0
lfingers 0 0 0
lthumb 0 0 0
rclavicle 0 0 0
rhumerus 3.72463 -24.7537 -0.171956
rradius 0 0 0
rwrist 0 0 0
rhand -31.4298 -44.4228 0.000141485
rfingers 0 0 0
rthumb -4.69822 -74.3505 0.000135266
990
root 1.12803 15.1588 32.469 0 0 0
lfemur 0 0 0
ltibia 0 0 0
lfoot -30.1151 -11.6166 3.77855e-06
ltoes -33.9482 0 0
rfemur 0 0 0
rtibia 50.5926 -0 0
rfoot -22.6946 4.89027 -2.74678e-05
rtoes 0 0 0
lowerback -1.47592 -0.350115 0.654637
upperback -0.703819 -0.470362 -5.85171
thorax 0 0 0
lowerneck -6.8155 1.15792 5.83688
upperneck 0 0 0
head 0 0 0
lclavicle 0 0 0
lhumerus 0 0 0
lradius 0 0 0
lwrist 0 0 0
lhand 0 0 0
lfingers 0 0 0
lthumb 0 0 0
rclavicle 0 0 0
rhumerus 3.6978 -24.7244 -0.164151
rradius 0 0 0
rwrist 0 0 0
rhand -31.4102 -44.3831 0.000311545
rfingers 0 0 0
rthumb -4.67926 -74.3112 0.00029785
991
root 1.12978 15.1595 32.4647 0 0 0
lfemur 0 0 0
ltibia 0 0 0
lfoot -30.1146 -11.5907 6.02952e-06
ltoes -33.9634 0 0
rfemur 0 0 0
rtibia 50.5704 -0 0
rfoot -22.6912 4.86141 -4.38311e-05
rtoes 0 0 0
lowerback -1.4681 -0.343821 0.644553
upperback -0.697995 -0.461647 -5.85122
thorax 0 0 0
lowerneck -6.83279 1.15091 5.84489
upperneck 0 0 0
head 0 0 0
lclavicle 0 0 0
lhumerus 0 0 0
lradius 0 0 0
lwrist 0 0 0
lhand 0 0 0
lfingers 0 0 0
lthumb 0 0 0
rclavicle 0 0 0
rhumerus 3.66571 -24.6894 -0.154836
rradius 0 0 0
rwrist 0 0 0
rhand -31.3867 -44.3356 0.000497141
rfingers 0 0 0
rthumb -4.65658 -74.2642 0.000475288
992
root 1.13132 15.1601 32.4604 0 0 0
lfemur 0 0 0
ltibia 0 0 0
lfoot -30.114 -11.561 8.31097e-06
ltoes -33.9808 0 0
rfemur 0 0 0
rtibia 50.5451 -0 0
rfoot -22.6873 4.82846 -6.04159e-05
rtoes 0 0 0
lowerback -1.45918 -0.336633 0.63304
upperback -0.691345 -0.451696 -5.85067
thorax 0 0 0
lowerneck -6.85254 1.14291 5.85404
upperneck 0 0 0
head 0 0 0
lclavicle 0 0 0
lhumerus 0 0 0
lradius 0 0 0
lwrist 0 0 0
lhand 0 0 0
lfingers 0 0 0
lthumb 0 0 0
rclavicle 0 0 0
rhumerus 3.62909 -24.6494 -0.14423
rradius 0 0 0
rwrist 0 0 0
rhand -31.3599 -44.2814 0.000685249
rfingers 0 0 0
rthumb -4.63068 -74.2105 0.000655127
993
root 1.13267 15.1606 32.4564 0 0 0
lfemur 0 0 0
ltibia 0 0 0
lfoot -30.1134 -11.5283 1.04732e-05
ltoes -34 0 0
rfemur 0 0 0
rtibia 50.517 -0 0
rfoot -22.683 4.79206 -7.61342e-05
rtoes 0 0 0
lowerback -1.44932 -0.328691 0.620324
upperback -0.683999 -0.440705 -5.85005
thorax 0 0 0
lowerneck -6.87434 1.13407 5.86415
upperneck 0 0 0
head 0 0 0
lclavicle 0 0 0
lhumerus 0 0 0
lradius 0 0 0
lwrist 0 0 0
lhand 0 0 0
lfingers 0 0 0
lthumb 0 0 0
rclavicle 0 0 0
rhumerus 3.58867 -24.6053 -0.13255
rradius 0 0 0
rwrist 0 0 0
rhand -31.3303 -44.2215 0.00086353
rfingers 0 0 0
rthumb -4.60207 -74.1512 0.000825571
994
root 1.13384 15.1612 32.4525 0 0 0
lfemur 0 0 0
ltibia 0 0 0
lfoot -30.1126 -11.493 1.23818e-05
ltoes -34.0207 0 0
rfemur 0 0 0
rtibia 50.4869 -0 0
rfoot -22.6784 4.75286 -9.00084e-05
rtoes 0 0 0
lowerback -1.4387 -0.320136 0.606632
upperback -0.676088 -0.428869 -5.84939
thorax 0 0 0
lowerneck -6.89783 1.12456 5.87504
upperneck 0 0 0
head 0 0 0
lclavicle 0 0 0
lhumerus 0 0 0
lradius 0 0 0
lwrist 0 0 0
lhand 0 0 0
lfingers 0 0 0
lthumb 0 0 0
rclavicle 0 0 0
rhumerus 3.54516 -24.5577 -0.120016
rradius 0 0 0
rwrist 0 0 0
rhand -31.2984 -44.157 0.00102089
rfingers 0 0 0
rthumb -4.57126 -74.0874 0.000976019
995
root 1.13485 15.1616 32.4487 0 0 0
lfemur 0 0 0
ltibia 0 0 0
lfoot -30.1119 -11.4558 1.39231e-05
ltoes -34.0425 0 0
rfemur 0 0 0
rtibia 50.4551 -0 0
rfoot -22.6735 4.71151 -0.000101213
rtoes 0 0 0
lowerback -1.4275 -0.311109 0.592189
upperback -0.667742 -0.416382 -5.84868
thorax 0 0 0
lowerneck -6.92261 1.11453 5.88653
upperneck 0 0 0
head 0 0 0
lclavicle 0 0 0
lhumerus 0 0 0
lradius 0 0 0
lwrist 0 0 0
lhand 0 0 0
lfingers 0 0 0
lthumb 0 0 0
rclavicle 0 0 0
rhumerus 3.4993 -24.5075 -0.106841
rradius 0 0 0
rwrist 0 0 0
rhand -31.2647 -44.089 0.00114798
rfingers 0 0 0
rthumb -4.53876 -74.02 0.00109752
996
root 1.13573 15.1621 32.4451 0 0 0
lfemur 0 0 0
ltibia 0 0 0
lfoot -30.1111 -11.4172 1.5009e-05
ltoes -34.0651 0 0
rfemur 0 0 0
rtibia 50.4221 -0 0
rfoot -22.6685 4.66865 -0.000109107
rtoes 0 0 0
lowerback -1.4159 -0.301749 0.577221
upperback -0.659091 -0.403441 -5.84795
thorax 0 0 0
lowerneck -6.9483 1.10414 5.89844
upperneck 0 0 0
head 0 0 0
lclavicle 0 0 0
lhumerus 0 0 0
lradius 0 0 0
lwrist 0 0 0
lhand 0 0 0
lfingers 0 0 0
lthumb 0 0 0
rclavicle 0 0 0
rhumerus 3.45179 -24.4555 -0.0932373
rradius 0 0 0
rwrist 0 0 0
rhand -31.2298 -44.0185 0.00123752
rfingers 0 0 0
rthumb -4.50507 -73.9502 0.00118312
997
root 1.13648 15.1625 32.4418 0 0 0
lfemur 0 0 0
ltibia 0 0 0
lfoot -30.1103 -11.3779 1.55803e-05
ltoes -34.0882 0 0
rfemur 0 0 0
rtibia 50.3884 -0 0
rfoot -22.6633 4.62493 -0.00011326
rtoes 0 0 0
lowerback -1.40407 -0.292198 0.561955
upperback -0.650267 -0.390239 -5.8472
thorax 0 0 0
lowerneck -6.9745 1.09355 5.9106
upperneck 0 0 0
head 0 0 0
lclavicle 0 0 0
lhumerus 0 0 0
lradius 0 0 0
lwrist 0 0 0
lhand 0 0 0
lfingers 0 0 0
lthumb 0 0 0
rclavicle 0 0 0
rhumerus 3.40336 -24.4024 -0.0794151
rradius 0 0 0
rwrist 0 0 0
rhand -31.1942 -43.9466 0.00128462
rfingers 0 0 0
rthumb -4.47071 -73.879 0.00122815
998
root 1.13713 15.1628 32.4386 0 0 0
lfemur 0 0 0
ltibia 0 0 0
lfoot -30.1095 -11.3383 1.56084e-05
ltoes -34.1114 0 0
rfemur 0 0 0
rtibia 50.3546 -0 0
rfoot -22.6581 4.58099 -0.000113464
rtoes 0 0 0
lowerback -1.39218 -0.282596 0.546615
upperback -0.641399 -0.376972 -5.84645
thorax 0 0 0
lowerneck -7.00083 1.08291 5.92282
upperneck 0 0 0
head 0 0 0
lclavicle 0 0 0
lhumerus 0 0 0
lradius 0 0 0
lwrist 0 0 0
lhand 0 0 0
lfingers 0 0 0
lthumb 0 0 0
rclavicle 0 0 0
rhumerus 3.35473 -24.349 -0.0655803
rradius 0 0 0
rwrist 0 0 0
rhand -31.1585 -43.8743 0.00128694
rfingers 0 0 0
rthumb -4.43618 -73.8074 0.00123037
999
root 1.1377 15.1631 32.4356 0 0 0
lfemur 0 0 0
ltibia 0 0 0
lfoot -30.1088 -11.2992 1.50971e-05
ltoes -34.1344 0 0
rfemur 0 0 0
rtibia 50.3212 -0 0
rfoot -22.653 4.53749 -0.000109747
rtoes 0 0 0
lowerback -1.38041 -0.273086 0.531428
upperback -0.632618 -0.363836 -5.8457
thorax 0 0 0
lowerneck -7.02691 1.07238 5.93493
upperneck 0 0 0
head 0 0 0
lclavicle 0 0 0
lhumerus 0 0 0
lradius 0 0 0
lwrist 0 0 0
lhand 0 0 0
lfingers 0 0 0
lthumb 0 0 0
rclavicle 0 0 0
rhumerus 3.30661 -24.2962 -0.0519358
rradius 0 0 0
rwrist 0 0 0
rhand -31.123 -43.8027 0.00124478
rfingers 0 0 0
rthumb -4.40198 -73.7365 0.00119006
